<svg xmlns="http://www.w3.org/2000/svg" viewBox="0 0 240 240" role="img" aria-label="Sirius Ascent">
  <title>Sirius Ascent</title>
  <rect width="240" height="240" rx="54" fill="#0E1016"/>
  <rect x="1" y="1" width="238" height="238" rx="53" fill="none" stroke="#D6DBE4" stroke-opacity=".2" stroke-width="2"/>
  <mask id="coreI"><rect width="240" height="240" fill="#fff"/><circle cx="120" cy="65.6" r="6.8" fill="#000"/></mask>
  <g fill="#E4E8EE" mask="url(#coreI)" transform="translate(41.6,32) scale(1.307)">
    <path d="M60 40 L64.5 45 L44 122 L29 122 Z"/>
    <path d="M60 40 L55.5 45 L76 122 L91 122 Z"/>
    <path d="M27 112 C48 97 70 89 102 66 C80 92 54 105 33 117 Z"/>
    <path d="M60 2 L64 24 L60 42 L56 24 Z M60 2 L56 24 L34 28 L57 31 Z M60 2 L64 24 L86 28 L63 31 Z M60 42 L56 30 L34 28 L57 31 Z M60 42 L64 30 L86 28 L63 31 Z"/>
  </g>
  <circle cx="120" cy="65.6" r="3.4" fill="#E4E8EE"/>
</svg>
