<svg xmlns="http://www.w3.org/2000/svg" viewBox="0 0 240 240" role="img" aria-label="Sirius Ascent">
  <title>Sirius Ascent</title>
  <defs><radialGradient id="bg" cx=".35" cy=".2" r="1">
    <stop offset="0" stop-color="#1C1F27"/><stop offset="1" stop-color="#08090C"/>
  </radialGradient></defs>
  <circle cx="120" cy="120" r="120" fill="url(#bg)"/>
  <mask id="coreA"><rect width="240" height="240" fill="#fff"/><circle cx="120" cy="65.6" r="6.8" fill="#000"/></mask>
  <g fill="#FFFFFF" mask="url(#coreA)" transform="translate(41.6,32) scale(1.307)">
    <path d="M60 40 L64.5 45 L44 122 L29 122 Z"/>
    <path d="M60 40 L55.5 45 L76 122 L91 122 Z"/>
    <path d="M27 112 C48 97 70 89 102 66 C80 92 54 105 33 117 Z"/>
    <path d="M60 2 L64 24 L60 42 L56 24 Z M60 2 L56 24 L34 28 L57 31 Z M60 2 L64 24 L86 28 L63 31 Z M60 42 L56 30 L34 28 L57 31 Z M60 42 L64 30 L86 28 L63 31 Z"/>
  </g>
  <circle cx="120" cy="65.6" r="3.4" fill="#FFFFFF"/>
</svg>
