<svg xmlns="http://www.w3.org/2000/svg" viewBox="0 0 480 130" role="img" aria-label="Sirius Ascent">
  <title>Sirius Ascent</title>
  <mask id="coreH"><rect width="480" height="130" fill="#fff"/><circle cx="60" cy="28" r="5.2" fill="#000"/></mask>
  <g fill="#E4E8EE" mask="url(#coreH)">
    <path d="M60 40 L64.5 45 L44 122 L29 122 Z"/>
    <path d="M60 40 L55.5 45 L76 122 L91 122 Z"/>
    <path d="M27 112 C48 97 70 89 102 66 C80 92 54 105 33 117 Z"/>
    <path d="M60 2 L64 24 L60 42 L56 24 Z M60 2 L56 24 L34 28 L57 31 Z M60 2 L64 24 L86 28 L63 31 Z M60 42 L56 30 L34 28 L57 31 Z M60 42 L64 30 L86 28 L63 31 Z"/>
  </g>
  <circle cx="60" cy="28" r="2.6" fill="#E4E8EE"/>
  <text x="140" y="72" font-family="Cormorant Garamond, Georgia, serif" font-size="46" font-weight="600" letter-spacing="7" fill="#E4E8EE">SIRIUS</text>
  <text x="143" y="96" font-family="Inter, Arial, sans-serif" font-size="11" letter-spacing="7.5" fill="#98A0B0">ASCENT</text>
</svg>
